<svg xmlns="http://www.w3.org/2000/svg" viewBox="0 0 432.63 130.96"><defs><style>.cls-1{fill:#bbb;}.cls-2{fill:#82b5e2;}.cls-3{fill:#d2d2d1;}.cls-4{fill:#616160;}</style></defs><title>logo</title><g id="Ebene_2" data-name="Ebene 2"><g id="Ebene_1-2" data-name="Ebene 1"><polygon class="cls-1" points="166.66 74.65 166.66 64.23 125 50.35 114.58 46.88 114.58 57.29 114.58 74.65 114.58 85.07 114.58 102.43 114.58 112.85 125 116.32 166.66 130.21 166.66 119.79 125 105.9 125 88.54 166.66 102.43 166.66 92.01 125 78.12 125 60.76 166.66 74.65"/><path class="cls-2" d="M166.66,0c-6.94,0-20.83,5.21-20.83,5.21L72.92,29.51S59,34.72,52.08,34.72s-20.83-5.21-20.83-5.21L10.42,22.57l20.83-7s13.89-5.2,20.83-5.2,20.84,5.2,20.84,5.2L83.33,19.1,99,13.89l-26-8.68S59,0,52.08,0,31.25,5.21,31.25,5.21L10.42,12.15C5.21,13.89,0,15.62,0,22.57S5.21,31.25,10.42,33l20.83,6.94s13.89,5.21,20.83,5.21,20.84-5.21,20.84-5.21l72.91-24.31s13.89-5.2,20.83-5.2,20.84,5.2,20.84,5.2l20.83,7L187.5,29.51s-13.89,5.21-20.84,5.21-20.83-5.21-20.83-5.21L135.42,26l-15.63,5.21,26,8.68s13.89,5.21,20.83,5.21,20.84-5.21,20.84-5.21L208.33,33c5.21-1.74,10.39-3.48,10.39-10.42s-5.18-8.68-10.39-10.42L187.5,5.21S173.61,0,166.66,0Z"/><path class="cls-3" d="M218.72,59.88c0-7.18-5.82-11.06-13-8.65l-39.05,13V74.65L193,65.88v0l15.34-5.14V78.1L193,83.23h0L166.66,92v10.42L193,93.66h0l15.34-5.13v17.34L193,111h0l-26.31,8.77v10.42l39.05-13c7.19-2.4,13-10.17,13-17.36V87.66a9.57,9.57,0,0,0-2.6-6.94,17.17,17.17,0,0,0,2.6-8.68Z"/><polygon class="cls-1" points="52.11 74.65 52.11 64.23 10.44 50.35 0.03 46.88 0.03 57.29 0.03 74.65 0.03 85.07 0.03 102.43 0.03 112.85 10.44 116.32 52.11 130.21 52.11 119.79 10.44 105.9 10.44 88.54 52.11 102.43 52.11 92.01 10.44 78.12 10.44 60.76 52.11 74.65"/><path class="cls-3" d="M104.17,59.88c0-7.18-5.83-11.06-13-8.65l-39,13V74.65l26.3-8.77v0l15.34-5.14V78.1L78.41,83.23h0L52.11,92v10.42l26.3-8.77h0l15.34-5.13v17.34L78.41,111h0l-26.3,8.77v10.42l39.05-13c7.18-2.4,13-10.17,13-17.36V87.66a9.58,9.58,0,0,0-2.61-6.94A17.19,17.19,0,0,0,104.17,72Z"/><path class="cls-4" d="M268.76,36.71a26,26,0,0,1,5.51.54A11.85,11.85,0,0,1,278.54,39a8.14,8.14,0,0,1,2.75,3.22,11.28,11.28,0,0,1,1,5,9.24,9.24,0,0,1-1.45,5.33,10.5,10.5,0,0,1-4.3,3.5A10.14,10.14,0,0,1,282.36,60a11.76,11.76,0,0,1,1.93,6.78A11.62,11.62,0,0,1,283,72.29a10.67,10.67,0,0,1-3.35,3.82,14.86,14.86,0,0,1-4.8,2.2,21.73,21.73,0,0,1-5.53.71h-20.5V36.71Zm-1.18,17.13a6.7,6.7,0,0,0,4.09-1.19,4.49,4.49,0,0,0,1.6-3.85,4.86,4.86,0,0,0-.54-2.43,4,4,0,0,0-1.42-1.48,5.9,5.9,0,0,0-2-.74,13.39,13.39,0,0,0-2.4-.21h-8.71v9.9Zm.53,18a12.29,12.29,0,0,0,2.61-.27,6.31,6.31,0,0,0,2.19-.89,4.43,4.43,0,0,0,1.51-1.69,5.72,5.72,0,0,0,.56-2.72q0-3.26-1.83-4.65a7.85,7.85,0,0,0-4.86-1.39H258.16V71.79Z"/><path class="cls-4" d="M299.2,36.71V79h-9.3V36.71Z"/><path class="cls-4" d="M303.07,44.53V36.71h34.66v7.82H325.05V79h-9.3V44.53Z"/><path class="cls-4" d="M349.19,68.59a6.64,6.64,0,0,0,2,2.4,8.81,8.81,0,0,0,3,1.36,14,14,0,0,0,3.56.45,18.13,18.13,0,0,0,2.66-.21,9.5,9.5,0,0,0,2.67-.8,5.84,5.84,0,0,0,2.07-1.63,4,4,0,0,0,.83-2.64,3.71,3.71,0,0,0-1.09-2.78A8.62,8.62,0,0,0,362,63a28.2,28.2,0,0,0-4-1.24c-1.51-.36-3-.75-4.57-1.19a40,40,0,0,1-4.62-1.45,15.85,15.85,0,0,1-4-2.22,10.56,10.56,0,0,1-2.87-3.41,10.34,10.34,0,0,1-1.1-5,11,11,0,0,1,1.4-5.65,12.45,12.45,0,0,1,3.64-4A15.75,15.75,0,0,1,351,36.48a21.48,21.48,0,0,1,5.69-.77,26.58,26.58,0,0,1,6.37.74,15.68,15.68,0,0,1,5.42,2.4,12.18,12.18,0,0,1,3.77,4.23,13.11,13.11,0,0,1,1.39,6.25h-9a7.43,7.43,0,0,0-.8-3.14,5.22,5.22,0,0,0-1.8-1.95,7.86,7.86,0,0,0-2.58-1,15.76,15.76,0,0,0-3.17-.29,11.45,11.45,0,0,0-2.25.23,6.18,6.18,0,0,0-2.05.83,5.32,5.32,0,0,0-1.51,1.48,4,4,0,0,0-.59,2.25,3.87,3.87,0,0,0,.47,2,4.25,4.25,0,0,0,1.87,1.42,23,23,0,0,0,3.85,1.3q2.46.66,6.43,1.66c.79.16,1.88.45,3.29.86a15.85,15.85,0,0,1,4.17,2,12.59,12.59,0,0,1,3.59,3.64A10.36,10.36,0,0,1,375,66.46a13,13,0,0,1-1.13,5.39,11.64,11.64,0,0,1-3.34,4.29A16.09,16.09,0,0,1,365,79a26.16,26.16,0,0,1-7.62,1,26.8,26.8,0,0,1-6.78-.85,17.34,17.34,0,0,1-5.81-2.7,13.34,13.34,0,0,1-4-4.68A14.06,14.06,0,0,1,339.41,65h9A7.67,7.67,0,0,0,349.19,68.59Z"/><path class="cls-4" d="M412,78.54a16.19,16.19,0,0,1-6.49,1.25,17.09,17.09,0,0,1-5.36-.83,12.52,12.52,0,0,1-4.36-2.46,11.82,11.82,0,0,1-2.9-4,12.82,12.82,0,0,1-1.07-5.36,10.76,10.76,0,0,1,.77-4.12,12.23,12.23,0,0,1,2.11-3.38,16.79,16.79,0,0,1,3-2.69,27.65,27.65,0,0,1,3.55-2.08,27.85,27.85,0,0,1-2.87-4.14,9.87,9.87,0,0,1-1.16-4.86,8.54,8.54,0,0,1,.92-4,9.71,9.71,0,0,1,2.46-3,11.26,11.26,0,0,1,3.53-2,12.65,12.65,0,0,1,4.11-.68,15.47,15.47,0,0,1,4.54.65,11,11,0,0,1,3.67,1.93A9.06,9.06,0,0,1,419,42a9.94,9.94,0,0,1,.92,4.38,9.33,9.33,0,0,1-2.17,6.28,18.22,18.22,0,0,1-5.36,4.27l5.45,6.69a11.38,11.38,0,0,0,1-2.46,17.5,17.5,0,0,0,.53-2.57h7.29a22.22,22.22,0,0,1-1.3,5.51A18.27,18.27,0,0,1,422.59,69l8.59,10h-10.3l-3.44-4.21A18.1,18.1,0,0,1,412,78.54Zm-8.45-17.06A8.84,8.84,0,0,0,401.68,63a7.38,7.38,0,0,0-1.33,2,5.4,5.4,0,0,0-.51,2.36,4.84,4.84,0,0,0,.51,2.17,5.57,5.57,0,0,0,1.33,1.77,6.47,6.47,0,0,0,1.92,1.19,6,6,0,0,0,2.28.44,7.41,7.41,0,0,0,3.95-1,14.37,14.37,0,0,0,3.17-2.7l-7.23-8.83A18.3,18.3,0,0,0,403.57,61.48Zm7.85-18.43a3.63,3.63,0,0,0-2.69-1.18,3.82,3.82,0,0,0-2.67,1,3.49,3.49,0,0,0-1.12,2.69A5.59,5.59,0,0,0,406,49c.71,1,1.46,1.91,2.25,2.9a16.7,16.7,0,0,0,3.06-2.43,4.94,4.94,0,0,0,1.27-3.61A3.9,3.9,0,0,0,411.42,43.05Z"/><path class="cls-4" d="M268.76,87.71a26,26,0,0,1,5.51.54A11.85,11.85,0,0,1,278.54,90a8.14,8.14,0,0,1,2.75,3.22,11.28,11.28,0,0,1,1,5,9.24,9.24,0,0,1-1.45,5.33,10.5,10.5,0,0,1-4.3,3.5,10.14,10.14,0,0,1,5.84,3.94,11.76,11.76,0,0,1,1.93,6.78,11.62,11.62,0,0,1-1.25,5.54,10.67,10.67,0,0,1-3.35,3.82,14.86,14.86,0,0,1-4.8,2.2,21.73,21.73,0,0,1-5.53.71h-20.5V87.71Zm-1.18,17.13a6.7,6.7,0,0,0,4.09-1.19,4.49,4.49,0,0,0,1.6-3.85,4.86,4.86,0,0,0-.54-2.43,4,4,0,0,0-1.42-1.48,5.9,5.9,0,0,0-2-.74,13.39,13.39,0,0,0-2.4-.21h-8.71v9.9Zm.53,18a12.29,12.29,0,0,0,2.61-.27,6.31,6.31,0,0,0,2.19-.89,4.43,4.43,0,0,0,1.51-1.69,5.72,5.72,0,0,0,.56-2.72q0-3.25-1.83-4.65a7.85,7.85,0,0,0-4.86-1.39H258.16v11.61Z"/><path class="cls-4" d="M321.46,87.71v7.82H299.12v9.07h20.5v7.23h-20.5V122.2h22.81V130H289.82V87.71Z"/><path class="cls-4" d="M349.91,87.71,365.73,130h-9.66l-3.2-9.42H337.05L333.74,130h-9.36l16-42.31Zm.53,26-5.33-15.52H345l-5.51,15.52Z"/><path class="cls-4" d="M360.69,95.53V87.71h34.66v7.82H382.67V130h-9.3V95.53Z"/><path class="cls-4" d="M406.8,119.59a6.76,6.76,0,0,0,2.05,2.4,8.73,8.73,0,0,0,3,1.36,14,14,0,0,0,3.55.45,18.37,18.37,0,0,0,2.67-.21,9.5,9.5,0,0,0,2.67-.8,5.84,5.84,0,0,0,2.07-1.63,4.11,4.11,0,0,0,.83-2.64,3.71,3.71,0,0,0-1.1-2.78,8.57,8.57,0,0,0-2.87-1.78,28.36,28.36,0,0,0-4-1.24c-1.5-.36-3-.75-4.56-1.19a40,40,0,0,1-4.62-1.45,15.85,15.85,0,0,1-4-2.22,10.56,10.56,0,0,1-2.87-3.41,10.34,10.34,0,0,1-1.1-5,11,11,0,0,1,1.39-5.65,12.48,12.48,0,0,1,3.65-4,15.75,15.75,0,0,1,5.09-2.37,21.42,21.42,0,0,1,5.69-.77,26.64,26.64,0,0,1,6.37.74,15.77,15.77,0,0,1,5.42,2.4,12.15,12.15,0,0,1,3.76,4.23,13,13,0,0,1,1.39,6.25h-9a7.58,7.58,0,0,0-.8-3.14,5.24,5.24,0,0,0-1.81-2,7.77,7.77,0,0,0-2.58-1,15.62,15.62,0,0,0-3.17-.29,11.45,11.45,0,0,0-2.25.23,6.13,6.13,0,0,0-2,.83,5.2,5.2,0,0,0-1.51,1.48,4,4,0,0,0-.59,2.25,3.78,3.78,0,0,0,.47,2,4.25,4.25,0,0,0,1.87,1.42,22.64,22.64,0,0,0,3.85,1.3q2.46.66,6.43,1.66c.79.16,1.88.45,3.28.86a15.91,15.91,0,0,1,4.18,2,12.72,12.72,0,0,1,3.59,3.64,10.44,10.44,0,0,1,1.5,5.84,12.94,12.94,0,0,1-1.12,5.39,11.66,11.66,0,0,1-3.35,4.29,16,16,0,0,1-5.51,2.82,26.09,26.09,0,0,1-7.61,1,26.8,26.8,0,0,1-6.78-.85,17.25,17.25,0,0,1-5.81-2.7,13.34,13.34,0,0,1-4-4.68A14,14,0,0,1,397,116h9A7.8,7.8,0,0,0,406.8,119.59Z"/><path class="cls-1" d="M248.87,3.46V.63H269V3.46h-8.41v22.4h-3.35V3.46Z"/><path class="cls-1" d="M276.42.63V11.48H289.7V.63h3.36V25.86H289.7V14.31H276.42V25.86h-3.36V.63Z"/><path class="cls-1" d="M299.16,8.28a12.32,12.32,0,0,1,2.28-4.22,11.12,11.12,0,0,1,3.78-2.93,13.15,13.15,0,0,1,10.53,0,11.32,11.32,0,0,1,3.78,2.93,12.66,12.66,0,0,1,2.28,4.22,16.6,16.6,0,0,1,0,9.93,12.71,12.71,0,0,1-2.28,4.23,11.14,11.14,0,0,1-3.78,2.91,13.37,13.37,0,0,1-10.53,0,11,11,0,0,1-3.78-2.91,12.36,12.36,0,0,1-2.28-4.23,16.6,16.6,0,0,1,0-9.93ZM302.25,17a10.33,10.33,0,0,0,1.55,3.34,8,8,0,0,0,2.73,2.39,9.14,9.14,0,0,0,7.91,0,8,8,0,0,0,2.72-2.39A10.13,10.13,0,0,0,318.71,17a14.39,14.39,0,0,0,0-7.52,10.13,10.13,0,0,0-1.55-3.34,8,8,0,0,0-2.72-2.39,9.14,9.14,0,0,0-7.91,0,8,8,0,0,0-2.73,2.39,10.33,10.33,0,0,0-1.55,3.34,14.39,14.39,0,0,0,0,7.52Z"/><path class="cls-1" d="M332.53.63l8,21.21,8-21.21h4.59V25.86h-3.18v-21h-.07l-7.88,21h-2.86l-7.88-21h-.07v21h-3.18V.63Z"/><path class="cls-1" d="M370.53.63l9.86,25.23h-3.71l-2.76-7.59H363.25l-2.83,7.59H357L366.82.63Zm2.33,14.81-4.2-11.77h-.07l-4.28,11.77Z"/><path class="cls-1" d="M387.8.63l13.29,20.46h.07V.63h3.18V25.86h-3.67L387.49,5.62h-.08V25.86h-3.18V.63Z"/><path class="cls-1" d="M414.52.63l13.29,20.46h.07V.63h3.18V25.86h-3.68L414.2,5.62h-.07V25.86H411V.63Z"/></g></g></svg>