<svg xmlns="http://www.w3.org/2000/svg" xmlns:xlink="http://www.w3.org/1999/xlink" width="624" height="444" viewBox="0 0 624 444">
  <defs>
    <circle id="thomann_io-a" cx="108.944" cy="109.262" r="108.466"/>
    <circle id="thomann_io-c" cx="108.944" cy="109.262" r="108.466"/>
  </defs>
  <g fill="none" fill-rule="evenodd">
    <g transform="translate(203 54)">
      <path fill="#007DD4" fill-rule="nonzero" d="M133.986432,45.5551229 L133.986432,16.6008531 L146.167016,16.6008531 L146.167016,3.61109514 C146.167016,3.61109514 145.272846,0 142.550595,0 L74.7724963,0 C73.8050461,-0.0199948041 72.8704908,0.352639833 72.1843551,1.03369532 C71.4982192,1.71475081 71.1197412,2.64542735 71.1362043,3.61109514 L71.1362043,16.6008531 L83.2571776,16.6008531 L83.2571776,45.5551229 C36.0449929,57.2359892 0,100.865711 0,151.198544 C0,210.59446 48.642857,258.725976 108.63174,258.725976 L108.63174,258.725976 C168.620623,258.725976 217.26348,210.59446 217.26348,151.198544 C217.041465,101.098187 182.722375,57.561748 133.986432,45.5551229 L133.986432,45.5551229 Z"/>
      <g transform="translate(0 41.462)">
        <mask id="thomann_io-b" fill="#fff">
          <use xlink:href="#thomann_io-a"/>
        </mask>
        <path fill="#0E90E4" fill-rule="nonzero" d="M-135.990353,68.1643437 C-135.990353,68.1643437 -107.590202,20.5587641 -62.3529602,20.5587641 C-17.1157184,20.5587641 -3.2241237,62.8704121 32.8382969,62.8704121 C68.9007176,62.8704121 102.49529,35.5051647 155.952057,35.5051647 C209.408824,35.5051647 217.489036,114.794725 249.710371,114.794725 C281.931706,114.794725 307.883911,56.1435368 338.194654,56.1435368 C368.505398,56.1435368 380.506303,116.008747 398.059865,116.008747 L398.059865,242.227219 L-135.990353,242.227219 L-135.990353,68.1643437 Z" mask="url(#thomann_io-b)"/>
      </g>
      <g transform="translate(0 41.462)">
        <mask id="thomann_io-d" fill="#fff">
          <use xlink:href="#thomann_io-c"/>
        </mask>
        <path fill="#00A8F2" fill-rule="nonzero" d="M-77.4585768,104.226764 C-77.4585768,104.226764 -38.9482104,52.2029411 22.0514139,52.2029411 C83.0510383,52.2029411 81.5782904,115.272373 156.588921,115.272373 C231.599552,115.272373 222.643653,34.7488888 279.065818,34.7488888 C335.487983,34.7488888 333.557489,134.258879 373.958545,134.258879 L373.958545,230.504943 L-77.4585768,230.504943 L-77.4585768,104.226764 Z" mask="url(#thomann_io-d)"/>
      </g>
      <polygon fill="#FFF" fill-rule="nonzero" points="149.265 121.663 149.265 141.506 114.019 141.506 114.019 175.159 114.218 178.155 115.014 180.794 116.188 183.076 117.979 185.199 119.969 186.787 122.537 188.017 125.502 188.712 128.865 188.89 133.622 188.712 138.379 187.838 143.513 186.251 149.265 183.969 149.265 203.514 141.742 205.975 134.816 207.741 128.089 208.614 121.143 208.971 113.82 208.435 110.257 207.919 106.695 207.205 103.53 206.332 100.346 205.102 97.38 203.514 94.813 201.748 92.226 199.804 90.057 197.343 88.285 194.704 86.494 191.886 85.3 188.553 84.325 184.842 83.728 180.973 83.529 176.568 83.529 141.506 69.657 141.506 69.657 134.481 106.297 97.851 113.441 97.851 113.441 121.663"/>
    </g>
    <path fill="#00A8F2" fill-rule="nonzero" d="M524.76,358.92 C527.053333,358.92 528.92,358.24 530.36,356.88 C531.8,355.52 532.52,353.8 532.52,351.72 C532.52,349.8 531.8,348.2 530.36,346.92 C528.92,345.64 527.053333,345 524.76,345 C522.466667,345 520.6,345.666667 519.16,347 C517.72,348.333333 517,349.986667 517,351.96 C517,353.933333 517.72,355.586667 519.16,356.92 C520.6,358.253333 522.466667,358.92 524.76,358.92 Z M531,407.96 L531,364.92 L518.52,364.92 L518.52,407.96 L531,407.96 Z M563.08,408.6 C567.613333,408.6 571.666667,407.653333 575.24,405.76 C578.813333,403.866667 581.613333,401.24 583.64,397.88 C585.666667,394.52 586.68,390.706667 586.68,386.44 C586.68,382.173333 585.666667,378.36 583.64,375 C581.613333,371.64 578.813333,369.013333 575.24,367.12 C571.666667,365.226667 567.613333,364.28 563.08,364.28 C558.546667,364.28 554.48,365.226667 550.88,367.12 C547.28,369.013333 544.466667,371.64 542.44,375 C540.413333,378.36 539.4,382.173333 539.4,386.44 C539.4,390.706667 540.413333,394.52 542.44,397.88 C544.466667,401.24 547.28,403.866667 550.88,405.76 C554.48,407.653333 558.546667,408.6 563.08,408.6 Z M563.08,398.36 C559.88,398.36 557.24,397.28 555.16,395.12 C553.08,392.96 552.04,390.066667 552.04,386.44 C552.04,382.813333 553.08,379.92 555.16,377.76 C557.24,375.6 559.88,374.52 563.08,374.52 C566.28,374.52 568.906667,375.6 570.96,377.76 C573.013333,379.92 574.04,382.813333 574.04,386.44 C574.04,390.066667 573.013333,392.96 570.96,395.12 C568.906667,397.28 566.28,398.36 563.08,398.36 Z"/>
    <circle cx="497.5" cy="401.5" r="7.5" fill="#00A8F2"/>
    <path fill="#000" fill-rule="nonzero" d="M63.88,406.96 L63.88,361.52 L81.8,361.52 L81.8,350.96 L33,350.96 L33,361.52 L50.92,361.52 L50.92,406.96 L63.88,406.96 Z M101.72,406.96 L101.72,384 L127.16,384 L127.16,406.96 L140.12,406.96 L140.12,350.96 L127.16,350.96 L127.16,373.04 L101.72,373.04 L101.72,350.96 L88.76,350.96 L88.76,406.96 L101.72,406.96 Z M180.52,407.92 C186.333333,407.92 191.56,406.666667 196.2,404.16 C200.84,401.653333 204.493333,398.2 207.16,393.8 C209.826667,389.4 211.16,384.453333 211.16,378.96 C211.16,373.466667 209.826667,368.52 207.16,364.12 C204.493333,359.72 200.84,356.266667 196.2,353.76 C191.56,351.253333 186.333333,350 180.52,350 C174.706667,350 169.466667,351.253333 164.8,353.76 C160.133333,356.266667 156.48,359.72 153.84,364.12 C151.2,368.52 149.88,373.466667 149.88,378.96 C149.88,384.453333 151.2,389.4 153.84,393.8 C156.48,398.2 160.133333,401.653333 164.8,404.16 C169.466667,406.666667 174.706667,407.92 180.52,407.92 Z M180.52,396.88 C177.213333,396.88 174.226667,396.12 171.56,394.6 C168.893333,393.08 166.8,390.96 165.28,388.24 C163.76,385.52 163,382.426667 163,378.96 C163,375.493333 163.76,372.4 165.28,369.68 C166.8,366.96 168.893333,364.84 171.56,363.32 C174.226667,361.8 177.213333,361.04 180.52,361.04 C183.826667,361.04 186.813333,361.8 189.48,363.32 C192.146667,364.84 194.24,366.96 195.76,369.68 C197.28,372.4 198.04,375.493333 198.04,378.96 C198.04,382.426667 197.28,385.52 195.76,388.24 C194.24,390.96 192.146667,393.08 189.48,394.6 C186.813333,396.12 183.826667,396.88 180.52,396.88 Z M233.08,406.96 L233.08,374.08 L249.48,401.04 L255.32,401.04 L271.8,373.36 L271.88,406.96 L284.04,406.96 L283.88,350.96 L273.24,350.96 L252.6,385.76 L231.64,350.96 L220.92,350.96 L220.92,406.96 L233.08,406.96 Z M303.24,406.96 L308.2,394.96 L334.2,394.96 L339.16,406.96 L352.76,406.96 L327.72,350.96 L314.92,350.96 L289.96,406.96 L303.24,406.96 Z M330.12,385.12 L312.36,385.12 L321.24,363.68 L330.12,385.12 Z M371.4,406.96 L371.4,372.96 L399.32,406.96 L409.96,406.96 L409.96,350.96 L397.16,350.96 L397.16,384.96 L369.32,350.96 L358.6,350.96 L358.6,406.96 L371.4,406.96 Z M436.04,406.96 L436.04,372.96 L463.96,406.96 L474.6,406.96 L474.6,350.96 L461.8,350.96 L461.8,384.96 L433.96,350.96 L423.24,350.96 L423.24,406.96 L436.04,406.96 Z"/>
  </g>
</svg>
